<?xml version="1.0" encoding="utf-8"?>
<!-- Generator: Adobe Illustrator 19.2.0, SVG Export Plug-In . SVG Version: 6.00 Build 0)  -->
<svg version="1.1" id="Layer_1" xmlns="http://www.w3.org/2000/svg" xmlns:xlink="http://www.w3.org/1999/xlink" x="0px" y="0px"
	 viewBox="0 0 26.2 26.2" style="enable-background:new 0 0 26.2 26.2;" xml:space="preserve">
<style type="text/css">
	.st0{fill:#E30613;}
	.st1{fill:#F28D11;}
	.st2{fill:#FDE254;}
	.st3{fill:#008D36;}
	.st4{fill:#4DB2DF;}
	.st5{fill:none;stroke:#231F20;stroke-miterlimit:10;}
	.st6{fill:none;stroke:#231F20;}
	.st7{fill:none;stroke:#231F20;stroke-linecap:round;stroke-linejoin:round;stroke-miterlimit:10;}
	.st8{fill:#273580;}
	.st9{fill:#EB5A8C;}
	.st10{fill:#E30613;stroke:#231F20;stroke-miterlimit:10;}
</style>
<g>
	<path class="st10" d="M11.3,17.1c-0.4,0-0.7-0.3-0.7-0.7v-0.2c0-0.7,0.2-1.4,0.5-1.9c0.3-0.5,0.9-1.1,1.7-1.7
		c0.8-0.6,1.3-1,1.6-1.4c0.3-0.4,0.4-0.8,0.4-1.2c0-0.5-0.2-0.9-0.6-1.1c-0.4-0.3-0.9-0.4-1.5-0.4C11.9,8.4,11,8.6,10,9
		C9.3,9.3,8.5,9,8.2,8.3l0,0c-0.4-0.7,0-1.7,0.7-2c1.3-0.5,2.7-0.8,4.1-0.8c1.6,0,2.8,0.4,3.8,1.1c0.9,0.8,1.4,1.8,1.4,3.1
		c0,0.8-0.2,1.6-0.6,2.2c-0.4,0.6-1.1,1.3-2.2,2.1c-0.7,0.5-1.2,1-1.4,1.2c-0.2,0.3-0.3,0.7-0.3,1.1l0,0c0,0.4-0.3,0.7-0.7,0.7H11.3
		z M10.3,21.1c0-0.6,0.2-1.1,0.5-1.5c0.3-0.3,0.9-0.5,1.5-0.5c0.6,0,1.1,0.2,1.5,0.5c0.4,0.3,0.5,0.8,0.5,1.5c0,0.6-0.2,1.1-0.5,1.4
		c-0.4,0.4-0.8,0.5-1.5,0.5c-0.6,0-1.1-0.2-1.5-0.5C10.4,22.2,10.3,21.7,10.3,21.1z"/>
</g>
</svg>
