<?xml version="1.0" encoding="utf-8"?>
<!-- Generator: Adobe Illustrator 19.2.0, SVG Export Plug-In . SVG Version: 6.00 Build 0)  -->
<svg version="1.1" id="Layer_1" xmlns="http://www.w3.org/2000/svg" xmlns:xlink="http://www.w3.org/1999/xlink" x="0px" y="0px"
	 viewBox="0 0 26.2 26.2" style="enable-background:new 0 0 26.2 26.2;" xml:space="preserve">
<style type="text/css">
	.st0{fill:#E30613;}
	.st1{fill:#F28D11;}
	.st2{fill:#FDE254;}
	.st3{fill:#008D36;}
	.st4{fill:#4DB2DF;}
	.st5{fill:none;stroke:#231F20;stroke-miterlimit:10;}
	.st6{fill:none;stroke:#231F20;}
	.st7{fill:none;stroke:#231F20;stroke-linecap:round;stroke-linejoin:round;stroke-miterlimit:10;}
	.st8{fill:#273580;}
	.st9{fill:#EB5A8C;}
	.st10{fill:#E30613;stroke:#231F20;stroke-miterlimit:10;}
</style>
<g>
	<rect x="1.6" y="4.8" class="st1" width="23" height="3.4"/>
	<polygon class="st0" points="24.6,5.2 1.6,5.2 1.6,3.1 3,1.8 23.2,1.8 24.6,3.1 	"/>
	<rect x="1.6" y="8.2" class="st2" width="23" height="3.4"/>
	<rect x="1.6" y="11.6" class="st3" width="23" height="3.4"/>
	<rect x="1.6" y="15" class="st4" width="23" height="3.4"/>
	<rect x="1.6" y="18.4" class="st8" width="23" height="3.4"/>
	<path class="st9" d="M24.6,23.3c0,0.8-0.7,1.5-1.5,1.5l0,0H2.9l-0.7-0.6l-0.6-0.8v-2h23V23.3z"/>
	<path class="st5" d="M22.2,1.8H3.8c-1.3,0-2.2,0.9-2.2,2.3v18.4c0,1.3,0.9,2.3,2.2,2.3h18.3c1.3,0,2.4-1,2.4-2.3V4.1
		C24.6,2.7,23.5,1.8,22.2,1.8z"/>
	<line class="st5" x1="1.6" y1="4.8" x2="24.6" y2="4.8"/>
	<line class="st5" x1="1.6" y1="8.2" x2="24.6" y2="8.2"/>
	<line class="st5" x1="1.6" y1="11.6" x2="24.6" y2="11.6"/>
	<line class="st5" x1="1.6" y1="18.4" x2="24.6" y2="18.4"/>
	<line class="st5" x1="1.6" y1="15" x2="24.6" y2="15"/>
	<line class="st5" x1="1.6" y1="21.8" x2="24.6" y2="21.8"/>
</g>
</svg>
