<?xml version="1.0" encoding="utf-8"?>
<!-- Generator: Adobe Illustrator 19.2.0, SVG Export Plug-In . SVG Version: 6.00 Build 0)  -->
<svg version="1.1" id="Layer_1" xmlns="http://www.w3.org/2000/svg" xmlns:xlink="http://www.w3.org/1999/xlink" x="0px" y="0px"
	 viewBox="0 0 26.2 26.2" style="enable-background:new 0 0 26.2 26.2;" xml:space="preserve">
<style type="text/css">
	.st0{fill:#E30613;}
	.st1{fill:#F28D11;}
	.st2{fill:#FDE254;}
	.st3{fill:#008D36;}
	.st4{fill:#4DB2DF;}
	.st5{fill:none;stroke:#231F20;stroke-miterlimit:10;}
	.st6{fill:none;stroke:#231F20;}
	.st7{fill:none;stroke:#231F20;stroke-linecap:round;stroke-linejoin:round;stroke-miterlimit:10;}
	.st8{fill:#273580;}
	.st9{fill:#EB5A8C;}
	.st10{fill:#E30613;stroke:#231F20;stroke-miterlimit:10;}
</style>
<g>
	<rect x="2.1" y="8.9" class="st0" width="4" height="4"/>
	<rect x="20" y="12.9" class="st0" width="4.5" height="4"/>
	<rect x="15.3" y="16.8" class="st0" width="4.5" height="4"/>
	<rect x="10.2" y="20.9" class="st0" width="4.5" height="4"/>
	<rect x="5.8" y="8.9" class="st1" width="4" height="4"/>
	<rect x="1.7" y="12.9" class="st1" width="4" height="4"/>
	<rect x="20.2" y="16.8" class="st1" width="4" height="4"/>
	<rect x="15.5" y="20.9" class="st1" width="4" height="4"/>
	<rect x="10.2" y="8.9" class="st2" width="4.7" height="4"/>
	<rect x="5.5" y="12.9" class="st2" width="4.7" height="4"/>
	<rect x="1.7" y="16.8" class="st2" width="4" height="4"/>
	<polygon class="st2" points="23.2,24.9 20.2,24.9 20.2,21.2 24.4,21.2 24.4,23.6 	"/>
	<rect x="15.2" y="8.9" class="st3" width="4.4" height="4"/>
	<rect x="10.6" y="13.1" class="st3" width="4.4" height="4"/>
	<rect x="5.8" y="16.8" class="st3" width="4.4" height="4"/>
	<polygon class="st3" points="5.9,24.5 3.1,24.5 1.7,23.4 1.7,20.9 5.9,20.9 	"/>
	<rect x="20" y="8.9" class="st4" width="4.5" height="4"/>
	<rect x="15.2" y="12.9" class="st4" width="4.5" height="4"/>
	<rect x="10.6" y="16.8" class="st4" width="4.5" height="4"/>
	<rect x="5.8" y="20.9" class="st4" width="4.5" height="4"/>
	<g>
		<path class="st5" d="M22.2,1.8H3.8c-1.3,0-2.2,0.9-2.2,2.3v18.4c0,1.3,0.9,2.3,2.2,2.3h18.3c1.3,0,2.4-1,2.4-2.3V4.1
			C24.6,2.7,23.5,1.8,22.2,1.8z"/>
		<line class="st5" x1="1.6" y1="8.9" x2="24.6" y2="8.9"/>
		<line class="st5" x1="1.6" y1="12.9" x2="24.6" y2="12.9"/>
		<line class="st5" x1="1.6" y1="16.9" x2="24.6" y2="16.9"/>
		<line class="st5" x1="1.6" y1="20.9" x2="24.6" y2="20.9"/>
		<line class="st6" x1="10.4" y1="8.9" x2="10.4" y2="24.8"/>
		<line class="st6" x1="15.1" y1="8.9" x2="15.1" y2="24.8"/>
		<line class="st6" x1="19.9" y1="8.9" x2="19.9" y2="24.8"/>
		<line class="st6" x1="5.6" y1="8.9" x2="5.6" y2="24.8"/>
		<circle class="st7" cx="8.7" cy="4.9" r="0.8"/>
		<circle class="st7" cx="17.4" cy="4.9" r="0.8"/>
	</g>
</g>
</svg>
